<svg width="32" height="31" viewBox="0 0 32 31" fill="none" xmlns="http://www.w3.org/2000/svg">
<path d="M16 8.23438C16 12.2471 12.7107 15.5 8.65306 15.5H1.30612V8.23438C1.30612 4.22168 4.59545 0.96875 8.65306 0.96875C12.7107 0.96875 16 4.22168 16 8.23438Z" fill="#17CF97"/>
<path d="M16 22.7656C16 18.7529 19.2893 15.5 23.3469 15.5H30.6939V22.7656C30.6939 26.7783 27.4045 30.0312 23.3469 30.0312C19.2893 30.0312 16 26.7783 16 22.7656Z" fill="#17CF97"/>
<path d="M1.30612 22.7656C1.30612 26.7783 4.59545 30.0312 8.65306 30.0312H16V22.7656C16 18.7529 12.7107 15.5 8.65306 15.5C4.59545 15.5 1.30612 18.7529 1.30612 22.7656Z" fill="#17CF97"/>
<path d="M30.6939 8.23438C30.6939 4.22168 27.4045 0.96875 23.3469 0.96875H16V8.23438C16 12.2471 19.2893 15.5 23.3469 15.5C27.4045 15.5 30.6939 12.2471 30.6939 8.23438Z" fill="#17CF97"/>
</svg>
